<?xml version="1.0" encoding="UTF-8"?>
<svg width="500px" height="500px" viewBox="0 0 500 500" version="1.1" xmlns="http://www.w3.org/2000/svg" xmlns:xlink="http://www.w3.org/1999/xlink">
    <!-- Generator: Sketch 52.3 (67297) - http://www.bohemiancoding.com/sketch -->
    <title>Flr_Plugin_Icon</title>
    <desc>Created with Sketch.</desc>
    <defs>
        <linearGradient x1="19.6772152%" y1="119.298342%" x2="69.8944726%" y2="44.8208542%" id="linearGradient-1">
            <stop stop-color="#1A237E" stop-opacity="0.4" offset="0%"></stop>
            <stop stop-color="#1A237E" stop-opacity="0" offset="100%"></stop>
        </linearGradient>
        <radialGradient cx="2.80933178%" cy="6.81570713%" fx="2.80933178%" fy="6.81570713%" r="151.492868%" gradientTransform="translate(0.028093,0.068157),scale(1.000000,0.999821),translate(-0.028093,-0.068157)" id="radialGradient-2">
            <stop stop-color="#FFFFFF" stop-opacity="0.1" offset="0%"></stop>
            <stop stop-color="#FFFFFF" stop-opacity="0" offset="100%"></stop>
        </radialGradient>
    </defs>
    <g id="Icon-Page" stroke="none" stroke-width="1" fill="none" fill-rule="evenodd">
        <g id="workspace">
            <g id="cat_box_background">
                <g id="cat_box_by_zhaofeng">
                    <path d="M499.121094,179.785156 C498.242188,183.886719 495.703125,187.011719 492.773438,189.941406 C475.292969,207.421875 457.8125,224.902344 440.234375,242.382813 C438.28125,244.335938 437.207031,246.191406 437.207031,249.121094 C437.304688,316.015625 437.304688,382.8125 437.304688,449.707031 C437.304688,450.878906 437.5,451.953125 437.597656,453.125 C440.039062,457.910156 438.671875,462.890625 438.574219,467.871094 C437.304688,474.121094 434.179688,479.394531 429.296875,483.496094 C425.292969,486.816406 420.800781,488.769531 415.429688,488.769531 C306.445313,488.769531 197.363281,488.769531 88.3789063,488.769531 C75.6835938,488.769531 65.4296875,479.296875 64.1601563,466.503906 C63.7695313,462.109375 62.890625,457.421875 65.3320313,453.125 C65.3320313,436.230469 65.4296875,419.335938 65.4296875,402.441406 C65.4296875,352.539062 65.4296875,302.636719 65.5273438,252.734375 C65.5273438,249.511719 64.6484375,247.363281 62.4023438,245.117188 C45.2148438,228.125 28.125,210.839844 10.9375,193.847656 C6.640625,189.453125 2.44140625,185.351563 0,179.6875 C0,176.757813 0,173.828125 0,170.898438 C2.83203125,166.796875 5.76171875,162.792969 9.375,159.375 C17.96875,151.269531 27.6367187,151.171875 36.0351562,159.570313 C53.8085937,177.246094 71.484375,194.921875 89.1601562,212.792969 C91.6992187,215.332031 94.140625,216.40625 97.65625,216.308594 C106.738281,216.015625 115.820312,216.113281 125,216.113281 C127.832031,215.039063 130.761719,215.332031 133.691406,215.332031 C208.105469,215.820313 282.617187,215.429688 357.03125,215.527344 C362.011719,215.527344 367.089844,214.550781 372.070312,216.113281 C382.8125,216.113281 393.457031,216.113281 404.199219,216.308594 C406.835937,216.308594 408.398437,215.136719 410.058594,213.476562 C427.050781,196.484375 444.726562,180.078125 460.742187,162.304688 C476.367187,144.921875 493.066406,156.738281 499.121094,171.972656 C499.804688,174.511719 499.707031,177.148438 499.121094,179.785156 Z" id="Path" fill="#835932"></path>
                    <path d="M136.328125,182.8125 C129.101563,182.324219 122.070313,181.25 116.113281,176.855469 C110.253906,172.460938 108.300781,167.285156 112.304688,161.71875 C125.585938,143.359375 127.441406,122.070312 129.785156,100.683594 C131.835938,82.2265625 137.890625,65.3320312 150.195313,50.9765625 C153.90625,46.6796875 156.542969,41.6992187 158.203125,36.0351562 C160.546875,27.9296875 164.0625,20.2148437 168.261719,12.890625 C171.679688,7.03125 175.976563,2.24609375 182.617188,-1.42108547e-14 C182.910156,-1.42108547e-14 183.300781,-1.42108547e-14 183.59375,-1.42108547e-14 C196.09375,1.07421875 203.320312,9.765625 209.667969,19.0429687 C212.792969,23.7304687 215.917969,24.8046875 221.289062,23.9257812 C237.890625,21.1914062 254.589844,21.484375 271.289062,23.5351562 C273.339844,23.828125 275.488281,23.828125 277.539062,24.3164062 C280.957031,25.0976562 283.007812,23.7304687 284.863281,20.9960937 C288.378906,15.7226562 292.1875,10.6445312 297.167969,6.640625 C301.074219,3.41796875 305.273438,0.78125 310.449219,-9.87404603e-15 C311.425781,-9.87404603e-15 312.402344,-9.87404603e-15 313.378906,-9.87404603e-15 C321.679687,2.83203125 326.757812,9.1796875 329.6875,16.796875 C337.109375,35.7421875 346.386719,53.6132812 356.835938,71.09375 C364.84375,84.4726562 366.894531,99.8046875 367.96875,115.136719 C369.140625,130.664062 372.949219,145.117188 381.835937,158.203125 C388.574219,168.261719 385.742187,175.292969 374.414062,179.882812 C370.019531,181.640625 365.332031,182.519531 360.644531,182.8125 C354.785156,187.011719 348.925781,185.15625 346.582031,178.125 C343.457031,168.75 341.210937,159.082031 338.574219,149.609375 C337.402344,145.605469 336.132812,141.601562 335.15625,137.5 C334.277344,133.789062 332.324219,132.03125 328.320312,132.226562 C324.609375,132.421875 320.898437,132.324219 317.089844,132.226562 C312.5,132.324219 308.007812,132.226562 303.417969,132.617188 C295.996094,132.03125 288.574219,132.519531 281.152344,132.324219 C276.855469,132.519531 272.558594,132.421875 268.261719,132.324219 C254.101562,132.519531 239.941406,132.519531 225.78125,132.324219 C220.800781,132.421875 215.820312,132.519531 210.839844,132.324219 C203.417969,132.519531 196.09375,132.519531 188.671875,132.324219 C184.570312,132.421875 180.371094,132.421875 176.269531,132.324219 C175.976562,132.324219 175.585938,132.324219 175.292969,132.324219 C160.15625,132.617188 163.183594,129.882812 158.886719,145.117187 C155.859375,155.859375 153.027344,166.601562 150.292969,177.441406 C148.632813,184.472656 141.40625,187.304688 136.328125,182.8125 Z" id="Path" fill="#015347"></path>
                    <path d="M267.578125,500 C257.519531,500 247.363281,500 237.304688,500 C237.011719,499.316406 237.207031,498.828125 237.792969,498.4375 C247.460938,497.167969 257.226563,497.167969 266.894531,498.4375 C267.382813,498.828125 267.675781,499.316406 267.578125,500 Z" id="Path" fill="#C9C8C6"></path>
                    <path d="M267.578125,500 C267.578125,499.707031 267.578125,499.414062 267.578125,499.121094 C267.773438,498.925781 267.96875,498.730469 268.164062,498.535156 C272.753906,497.363281 277.246094,497.265625 281.835938,498.535156 C282.421875,498.925781 282.519531,499.414062 282.226562,500 C277.34375,500 272.460938,500 267.578125,500 Z" id="Path" fill="#D2D2D2"></path>
                    <path d="M237.304688,499.121094 C237.304688,499.414063 237.304688,499.707031 237.304688,500 C232.714844,500 228.222656,500 223.632813,500 C223.339844,499.316406 223.535156,498.828125 224.121094,498.4375 C228.515625,497.460938 233.007813,496.679688 237.304688,499.121094 Z" id="Path" fill="#D0D0D0"></path>
                    <path d="M300.78125,499.121094 C300.78125,499.414062 300.78125,499.707031 300.78125,500 C297.558594,500 294.238281,500 291.015625,500 C290.722656,499.414062 290.820313,498.828125 291.40625,498.4375 C294.628906,497.460937 297.851563,496.777344 300.78125,499.121094 Z" id="Path" fill="#EBEBEA"></path>
                    <path d="M217.773438,500 C214.84375,500 211.914062,500 208.984375,500 C208.691406,499.511719 208.691406,499.023438 209.179688,498.632813 C210.644531,497.753906 212.207031,497.753906 213.769531,497.753906 C215.136719,497.753906 216.40625,497.851563 217.578125,498.632813 C218.066406,499.023438 218.066406,499.511719 217.773438,500 Z" id="Path" fill="#E4E3E2"></path>
                    <path d="M291.015625,499.121094 C291.015625,499.414063 291.015625,499.707031 291.015625,500 C288.085938,500 285.15625,500 282.226562,500 C282.226562,499.707031 282.226562,499.414062 282.226562,499.121094 C284.082031,497.167969 286.523438,497.851562 288.769531,497.851562 C289.746094,498.046875 290.527344,498.339844 291.015625,499.121094 Z" id="Path" fill="#DDDDDC"></path>
                    <path d="M208.984375,499.121094 C208.984375,499.414062 208.984375,499.707031 208.984375,500 C206.738281,500 204.394531,500 202.148438,500 C202.148438,499.707031 202.148438,499.414062 202.148438,499.121094 C204.394531,497.265625 206.640625,497.265625 208.984375,499.121094 Z" id="Path" fill="#EFEFEF"></path>
                    <path d="M217.773438,500 C217.773438,499.707031 217.773438,499.414062 217.773438,499.121094 C219.726562,497.363281 221.679688,497.363281 223.632812,499.121094 C223.632812,499.414063 223.632812,499.707031 223.632812,500 C221.679688,500 219.726562,500 217.773438,500 Z" id="Path" fill="#D9D9D9"></path>
                    <path d="M225.488281,130.957031 C239.84375,130.957031 254.199219,130.859375 268.554688,130.859375 C269.042969,131.347656 269.335938,131.933594 269.335938,132.617187 C269.140625,134.179687 269.335938,135.644531 269.726562,137.207031 C273.144531,148.828125 281.25,155.664062 292.1875,156.054687 C302.539062,156.347656 311.132812,149.804687 315.527344,138.183594 C316.503906,135.9375 315.429687,133.105469 317.285156,131.054687 C321.484375,131.054687 325.78125,131.25 329.980469,130.859375 C333.59375,130.566406 335.15625,131.933594 336.132813,135.253906 C339.648438,148.339844 343.359375,161.425781 346.875,174.511719 C349.316406,183.496094 351.757812,185.058594 360.742188,182.8125 C362.5,192.480469 366.601563,201.464844 370.019531,210.644531 C370.703125,212.5 371.386719,214.257812 372.167969,216.015625 C370.605469,217.1875 368.75,216.699219 366.992188,216.699219 C288.085938,216.699219 209.277344,216.699219 130.371094,216.699219 C128.613281,216.699219 126.757812,217.1875 125.195312,216.015625 C129.394531,206.25 132.8125,196.191406 136.132812,186.035156 C136.523437,184.960937 137.011719,183.984375 136.523437,182.8125 C145.410156,184.960937 147.363281,183.691406 149.707031,175.097656 C153.222656,161.621094 156.933594,148.242187 160.449219,134.765625 C161.132812,132.128906 162.207031,130.46875 165.332031,130.761719 C168.847656,131.054687 172.460937,130.859375 176.074219,130.957031 C177.441406,132.519531 177.34375,134.570312 177.929687,136.425781 C180.761719,148.242187 189.84375,155.957031 200.878906,155.957031 C211.816406,155.957031 220.800781,148.339844 223.828125,136.425781 C224.21875,134.667969 224.121094,132.519531 225.488281,130.957031 Z" id="Path" fill="#44546A"></path>
                    <path d="M208.984375,499.121094 C206.738281,499.121094 204.394531,499.121094 202.148438,499.121094 C185.253906,498.4375 168.359375,498.046875 151.5625,496.875 C114.84375,494.335937 78.125,491.894531 42.1875,483.300781 C36.2304688,481.835938 30.1757812,480.273438 24.8046875,477.246094 C21.9726563,475.683594 18.6523438,474.21875 18.6523438,470.410156 C18.75,466.601563 22.1679688,465.136719 25,463.671875 C34.2773438,459.179688 44.3359375,457.226562 54.296875,455.078125 C57.9101563,454.296875 61.6210938,453.710938 65.3320312,453.027344 C65.3320312,456.640625 65.4296875,460.15625 65.4296875,463.769531 C65.625,477.34375 75.6835938,487.5 89.2578125,487.5 C197.070312,487.5 304.882813,487.5 412.597656,487.5 C425.390625,487.5 432.03125,482.03125 437.402344,467.675781 C439.0625,462.988281 437.011719,458.007812 438.476563,453.222656 C451.660156,455.175781 464.746094,457.519531 477.148438,462.695312 C478.613281,463.28125 480.078125,464.0625 481.542969,464.84375 C487.890625,468.652344 487.988281,472.753906 481.640625,476.464844 C474.511719,480.566406 466.601563,482.617187 458.691406,484.375 C435.15625,489.550781 411.328125,492.285156 387.402344,494.335937 C365.527344,496.191406 343.652344,497.65625 321.777344,498.339844 C314.84375,498.535156 307.8125,498.828125 300.878906,499.121094 C297.65625,499.121094 294.335938,499.121094 291.113281,499.121094 C290.429688,499.023438 289.746094,499.023438 289.0625,498.925781 C285.644531,497.167969 282.128906,498.925781 278.613281,498.632812 C274.902344,498.242188 271.191406,498.730469 267.480469,498.4375 C252.929688,497.460938 238.378906,498.535156 223.925781,498.632812 C220.605469,498.632812 217.1875,496.972656 213.964844,498.925781 C212.207031,499.023438 210.644531,499.023438 208.984375,499.121094 Z" id="Path" fill="#B2B2B2"></path>
                    <path d="M438.476563,453.222656 C438.378906,458.105469 438.28125,462.890625 438.183594,467.773438 C438.183594,467.871094 437.890625,467.96875 437.792969,467.871094 C437.597656,467.871094 437.5,467.773438 437.402344,467.675781 C437.5,462.792969 437.5,458.007813 437.597656,453.125 C437.890625,453.027344 438.183594,453.125 438.476563,453.222656 Z" id="Path" fill="#B9B9B9"></path>
                    <path d="M472.558594,165.820312 C478.613281,164.160156 486.816406,168.75 488.085937,174.707031 C488.769531,177.832031 486.71875,179.882812 484.765625,181.835938 C466.308594,200.195312 448.046875,218.652344 429.492187,237.011719 C426.855469,239.648437 425.78125,242.1875 425.78125,245.996094 C425.878906,317.871094 425.878906,389.84375 425.878906,461.71875 C425.878906,470.214844 423.046875,474.21875 416.113281,475.683594 C315.722656,475.683594 215.234375,475.683594 114.84375,475.683594 C105.273437,475.683594 95.703125,475.683594 86.1328125,475.683594 C79.8828125,473.632812 77.34375,470.019531 77.34375,462.890625 C77.34375,426.953125 77.34375,391.015625 77.34375,355.078125 C77.34375,319.824219 77.2460937,284.472656 77.4414062,249.21875 C77.4414062,245.3125 76.2695312,242.578125 73.4375,239.84375 C54.5898437,221.191406 35.8398437,202.441406 17.0898437,183.691406 C9.375,175.976562 11.0351562,169.628906 21.7773437,165.429688 C21.9726562,168.457031 23.3398437,170.800781 25.5859375,172.949219 C41.6015625,188.769531 57.6171875,205.078125 73.9257812,221.09375 C77.8320312,225 82.2265625,228.320312 86.1328125,232.226562 C86.6210937,232.519531 87.109375,232.714844 87.5976562,232.8125 C89.2578125,233.007812 90.8203125,232.910156 92.4804687,232.910156 C198.242187,232.910156 303.90625,232.910156 409.667969,232.910156 C410.449219,232.910156 411.328125,232.910156 412.109375,232.8125 C412.597656,232.617188 413.085937,232.421875 413.476562,232.128906 C415.039062,231.054688 416.503906,229.6875 417.871094,228.320312 C436.035156,210.15625 454.199219,191.992188 472.363281,173.730469 C476.464844,169.921875 476.367187,169.726562 472.558594,165.820312 Z" id="Path" fill="#AD8C5D"></path>
                    <path d="M85.9375,475.585938 C87.4023438,474.023437 89.2578125,474.707031 91.015625,474.707031 C197.65625,474.707031 304.296875,474.707031 410.9375,474.707031 C412.597656,474.707031 414.550781,474.023438 416.015625,475.683594 C414.257812,476.757813 412.304688,476.5625 410.351562,476.5625 C304.101562,476.5625 197.851562,476.5625 91.6992187,476.5625 C89.6484375,476.464844 87.6953125,476.660156 85.9375,475.585938 Z" id="Path" fill="#B0905D"></path>
                    <path d="M372.949219,165.039063 C371.777344,171.386719 366.113281,169.628906 362.207031,170.800781 C358.59375,171.875 358.105469,168.75 357.324219,166.308594 C353.808594,154.003906 350.292969,141.796875 346.972656,129.394531 C344.238281,119.140625 344.335938,119.140625 333.984375,119.140625 C332.714844,119.140625 331.347656,119.140625 330.078125,119.140625 C325.585938,118.359375 320.996094,117.96875 316.503906,117.96875 C305.273438,117.96875 294.140625,116.308594 282.910156,116.796875 C273.632813,117.1875 264.355469,115.820313 255.175781,116.015625 C227.050781,116.40625 198.925781,116.894531 170.898438,118.75 C169.921875,118.847656 168.945313,119.140625 167.96875,119.238281 C165.332031,119.238281 162.792969,119.238281 160.15625,119.238281 C152.636719,119.238281 151.367188,120.214844 149.511719,127.636719 C146.09375,140.820313 142.480469,153.90625 139.355469,167.089844 C138.476562,170.605469 136.621094,171.777344 133.59375,170.898438 C130.761719,170.019531 127.246094,170.800781 125,168.066406 C131.640625,162.402344 134.082031,154.394531 137.011719,146.679688 C142.675781,132.03125 145.703125,116.699219 147.753906,101.269531 C150,84.0820313 156.347656,68.359375 164.84375,53.4179688 C170.703125,43.1640625 174.707031,32.3242188 178.222656,21.09375 C178.808594,19.2382812 179.101562,17.2851562 180.566406,15.8203125 C182.519531,11.8164062 185.058594,12.5 187.988281,14.7460937 C194.824219,19.921875 199.902344,26.4648437 203.515625,34.1796875 C205.371094,38.0859375 207.910156,39.7460938 212.5,38.7695312 C236.035156,33.59375 259.667969,34.1796875 283.300781,38.7695312 C288.085938,39.6484375 290.625,38.0859375 292.578125,33.984375 C296.289062,26.2695312 301.367188,19.7265625 308.203125,14.5507812 C311.035156,12.4023437 313.476562,12.0117187 315.429688,15.5273437 C319.824219,33.6914063 327.539062,50.4882813 336.132812,66.8945313 C343.945312,81.9335938 347.265625,98.3398438 349.902344,114.941406 C352.539062,130.957031 356.933594,146.289063 364.453125,160.742188 C366.40625,164.648438 368.554688,166.699219 372.949219,165.039063 Z" id="Path" fill="#017A56"></path>
                    <path d="M372.949219,165.039062 C368.945313,169.140625 367.285156,168.847656 364.648438,163.964844 C355.273438,147.167969 350.585938,128.808594 347.65625,109.960938 C345.214844,94.3359375 341.210938,79.1992188 333.886719,65.0390625 C326.5625,50.8789063 319.726563,36.5234375 315.820313,20.9960938 C315.429688,19.3359375 313.867188,17.3828125 315.527344,15.5273438 C316.601563,15.7226563 317.1875,16.3085938 317.480469,17.3828125 C321.679688,33.3984375 329.296875,47.9492188 338.085938,61.8164063 C347.851563,77.1484375 353.222656,94.0429688 356.25,111.816406 C359.082031,129.003906 363.769531,145.703125 372.167969,161.230469 C372.65625,162.402344 372.65625,163.769531 372.949219,165.039062 Z" id="Path" fill="#4DA174"></path>
                    <path d="M180.566406,15.8203125 C178.222656,28.4179688 173.828125,40.3320312 167.480469,51.171875 C156.542969,69.8242188 150.390625,89.7460938 147.363281,111.035156 C144.726563,129.589844 139.84375,147.460938 130.46875,163.964844 C129.199219,166.210938 127.929688,168.164062 125,167.96875 C122.558594,166.308594 121.386719,164.257812 123.046875,161.328125 C132.617188,144.140625 137.207031,125.390625 140.332031,106.347656 C143.554688,86.8164062 150.488281,69.2382812 161.621094,53.0273437 C168.652344,42.7734375 173.4375,31.4453125 177.246094,19.6289062 C177.734375,17.96875 177.636719,15.4296875 180.566406,15.8203125 Z" id="Path" fill="#4DA174"></path>
                    <path d="M167.96875,119.140625 C168.75,117.285156 170.3125,117.1875 171.972656,117.089844 C190.722656,115.917969 209.570312,115.039062 228.417969,115.039062 C236.71875,115.039062 244.921875,114.0625 253.222656,114.257812 C274.609375,114.941406 296.09375,115.332031 317.480469,116.40625 C321.582031,116.601562 326.660156,115.136719 330.175781,119.042969 C326.757812,121.09375 322.851562,120.605469 319.335938,120.605469 C306.640625,120.800781 294.042969,122.558594 281.347656,121.875 C276.367188,121.09375 271.289062,120.605469 266.40625,121.09375 C254.882812,122.070312 243.457031,122.070312 231.933594,121.09375 C226.953125,120.703125 221.972656,121.09375 216.992187,121.875 C201.367187,122.265625 185.839844,120.703125 170.3125,119.921875 C169.335938,120.019531 168.652344,119.433594 167.96875,119.140625 Z" id="Path" fill="#4DA174"></path>
                    <path d="M188.28125,130.957031 C195.898438,130.957031 203.417969,130.957031 211.035156,130.957031 C212.597656,133.007812 211.621094,135.058594 210.742188,137.011719 C204.589844,146.191406 194.726563,146.191406 188.574219,137.011719 C187.792969,135.058594 186.816406,133.105469 188.28125,130.957031 Z" id="Path" fill="#020202"></path>
                    <path d="M281.25,130.957031 C288.769531,131.347656 296.386719,129.785156 303.90625,131.738281 C305.371094,133.59375 304.6875,135.351562 303.90625,137.109375 C297.070312,146.09375 288.183594,145.996094 281.640625,136.914063 C280.859375,134.960938 279.6875,133.007812 281.25,130.957031 Z" id="Path" fill="#020202"></path>
                    <path d="M216.796875,122.070313 C223.535156,120.703125 230.371094,119.433594 237.207031,120.3125 C245.117188,121.289063 252.929687,121.289063 260.742188,120.3125 C267.578125,119.433594 274.414062,120.605469 281.152344,122.070313 C259.765625,123.242188 238.28125,123.242188 216.796875,122.070313 Z" id="Path" fill="#4EA274"></path>
                    <path d="M209.960938,136.71875 C210.351562,134.765625 210.742188,132.8125 211.035156,130.957031 C215.820312,130.957031 220.605469,130.957031 225.488281,131.054688 C225.585938,133.105469 225.78125,135.058594 224.511719,136.914062 C219.628906,138.964844 214.746094,139.0625 209.960938,136.71875 Z" id="Path" fill="#CBBDA9"></path>
                    <path d="M302.929688,136.71875 C303.222656,135.058594 303.613281,133.398438 303.90625,131.738281 C308.300781,129.882812 312.890625,131.152344 317.285156,130.957031 C317.382813,133.59375 317.96875,136.230469 316.503906,138.671875 C312.011719,137.402344 307.128906,139.355469 302.929688,136.71875 Z" id="Path" fill="#CDBFAB"></path>
                    <path d="M188.28125,130.957031 C188.671875,132.910156 189.0625,134.863281 189.355469,136.71875 C185.15625,138.964844 180.957031,138.867188 176.757813,136.816406 C175.488281,135.058594 175.683594,133.007812 175.78125,130.957031 C180.078125,130.957031 184.179688,130.957031 188.28125,130.957031 Z" id="Path" fill="#CABDA9"></path>
                    <path d="M281.25,130.957031 C281.640625,132.8125 281.933594,134.765625 282.324219,136.621094 C278.417969,139.257812 274.21875,138.28125 270.117188,137.402344 C268.359375,136.328125 269.335938,134.179688 268.359375,132.714844 C268.359375,132.03125 268.457031,131.445312 268.457031,130.761719 C272.753906,130.859375 277.050781,130.859375 281.25,130.957031 Z" id="Path" fill="#CCBEAA"></path>
                    <path d="M213.867188,498.925781 C214.0625,497.167969 215.332031,496.875 216.699219,497.070313 C230.566406,499.707031 244.335938,495.800781 258.203125,497.070313 C261.328125,497.363281 264.648437,496.09375 267.578125,498.046875 C267.96875,498.242188 268.066406,498.4375 267.871094,498.730469 C267.773437,498.925781 267.675781,499.023438 267.480469,499.023438 C267.480469,499.023438 267.480469,499.121094 267.480469,499.121094 C257.421875,499.121094 247.265625,499.121094 237.207031,499.121094 C232.617188,499.121094 228.125,499.121094 223.535156,499.121094 C221.582031,499.121094 219.628906,499.121094 217.675781,499.121094 C216.503906,499.023438 215.136719,499.023438 213.867188,498.925781 Z" id="Path" fill="#AFAFAF"></path>
                    <path d="M267.578125,499.023438 C267.578125,498.730469 267.578125,498.339844 267.578125,498.046875 C273.925781,497.65625 280.371094,498.828125 286.71875,497.167969 C287.988281,496.875 288.867188,497.558594 289.0625,498.925781 C286.816406,499.023438 284.570312,499.023438 282.226562,499.121094 C277.34375,499.121094 272.460938,499.023438 267.578125,499.023438 Z" id="Path" fill="#AFAFAF"></path>
                    <path d="M138.574219,214.84375 C140.820312,208.398437 143.164062,202.050781 145.214844,195.605469 C150.292969,179.980469 154.882813,164.257812 159.082031,148.4375 C159.667969,146.289062 159.570312,143.261719 163.28125,143.554687 C166.601563,143.847656 170.019531,142.480469 172.265625,147.070312 C177.929688,158.789062 187.695312,164.84375 200.683594,164.84375 C213.671875,164.84375 223.242188,158.398437 229.199219,146.875 C230.46875,144.335937 231.933594,143.359375 234.765625,143.359375 C242.578125,143.554687 250.390625,143.554687 258.203125,143.359375 C261.035156,143.261719 262.5,144.140625 263.867188,146.777344 C269.824219,158.203125 279.296875,164.84375 292.285156,164.84375 C305.273438,164.746094 315.625,159.179687 321.289062,147.070312 C323.4375,142.480469 327.050781,143.945312 330.371094,143.457031 C335.351562,142.675781 337.402344,144.726562 338.574219,149.609375 C343.554688,170.117188 349.804688,190.234375 357.226562,210.058594 C357.8125,211.523438 358.007812,213.183594 358.398438,214.746094 C356.835938,215.625 355.175781,215.234375 353.613281,215.234375 C283.496094,215.234375 213.378906,215.234375 143.359375,215.234375 C141.796875,215.332031 140.136719,215.722656 138.574219,214.84375 Z" id="Path" fill="#70859F"></path>
                    <path d="M269.53125,136.71875 C273.828125,136.71875 278.125,136.621094 282.324219,136.621094 C289.355469,144.726563 295.898437,144.726563 302.832031,136.71875 C306.152344,136.71875 309.472656,136.71875 312.792969,136.816406 C314.257812,136.816406 316.113281,136.425781 316.503906,138.671875 C312.890625,150.585938 303.027344,157.8125 291.308594,157.226563 C279.980469,156.542969 270.507812,148.046875 268.75,136.816406 C268.945312,136.230469 269.238281,136.230469 269.53125,136.71875 Z" id="Path" fill="#FEFEFE"></path>
                    <path d="M176.855469,136.816406 C181.054688,136.816406 185.253906,136.816406 189.453125,136.71875 C196.386719,144.628906 202.734375,144.628906 209.960938,136.71875 C214.84375,136.71875 219.628906,136.816406 224.511719,136.816406 C222.558594,148.632812 212.695312,157.128906 200.976562,157.226562 C188.867188,157.324219 178.90625,148.828125 176.855469,136.816406 Z" id="Path" fill="#FEFEFE"></path>
                    <path d="M138.574219,214.84375 C211.816406,214.84375 285.15625,214.84375 358.398438,214.84375 C358.105469,216.992188 356.445312,215.917969 355.46875,215.917969 C284.179688,216.015625 212.792969,216.015625 141.503906,215.917969 C140.625,215.820312 138.964844,216.992188 138.574219,214.84375 Z" id="Path" fill="#6E88AA"></path>
                    <path d="M269.53125,136.71875 L269.140625,136.816406 L268.75,136.816406 C268.164063,135.546875 267.871094,134.179688 268.457031,132.8125 C270.019531,133.789062 269.335938,135.351562 269.53125,136.71875 Z" id="Path" fill="#CDCDCD"></path>
                    <path d="M414.746094,489.160156 C305.566406,489.160156 196.386719,489.160156 87.3046875,489.160156 C87.3046875,488.964844 87.3046875,488.867188 87.3046875,488.671875 C196.484375,488.671875 305.761719,488.671875 414.941406,488.671875 C414.84375,488.769531 414.746094,488.964844 414.746094,489.160156 Z" id="Path" fill="#BCBCBC"></path>
                    <path d="M206.933594,332.128906 C199.707031,330.859375 195.3125,326.5625 193.945313,319.53125 C192.871094,313.964844 192.675781,308.203125 193.945313,302.636719 C195.800781,294.238281 201.464844,290.039063 210.058594,290.039063 C237.011719,290.039063 263.964844,290.039063 290.917969,290.039063 C302.050781,290.039063 307.519531,294.433594 309.082031,305.273438 C309.667969,309.277344 309.667969,313.378906 309.179688,317.382813 C308.203125,325.292969 303.808594,330.371094 295.800781,332.128906 C295.214844,332.421875 294.628906,332.617188 294.042969,332.617188 C265.527344,332.421875 237.109375,332.421875 208.59375,332.617188 C208.105469,332.617188 207.519531,332.421875 206.933594,332.128906 Z" id="Path" fill="#E5C798"></path>
                    <path d="M414.0625,233.398437 C413.476562,235.644531 411.71875,234.277344 410.644531,234.277344 C303.613281,234.375 196.582031,234.375 89.5507812,234.375 C87.9882813,234.375 86.2304688,234.960937 84.9609375,233.398437 C86.6210938,232.03125 88.671875,232.421875 90.625,232.421875 C196.582031,232.421875 302.539062,232.421875 408.496094,232.421875 C410.351562,232.421875 412.402344,232.03125 414.0625,233.398437 Z" id="Path" fill="#A98856"></path>
                    <path d="M414.0625,233.398438 C304.394531,233.398438 194.628906,233.398438 84.9609375,233.398438 C84.9609375,233.105469 84.9609375,232.8125 84.9609375,232.519531 C84.9609375,232.519531 84.9609375,232.226562 84.9609375,232.226562 C96.484375,231.25 107.910156,231.835937 119.433594,231.835937 C215.722656,231.835937 312.011719,231.738281 408.203125,231.835937 C410.15625,231.835937 412.109375,231.445312 413.964844,232.226562 C413.964844,232.226562 413.964844,232.519531 413.964844,232.519531 C414.0625,232.8125 414.0625,233.105469 414.0625,233.398438 Z" id="Path" fill="#C9A97B"></path>
                    <path d="M295.898438,333.007812 C296.09375,334.863281 294.628906,333.984375 293.945313,333.984375 C266.210938,334.082031 238.378906,333.984375 210.644531,333.984375 C209.375,333.984375 208.007812,334.277344 207.03125,333.007812 C208.984375,331.835938 211.132812,332.03125 213.183594,332.03125 C238.671875,332.03125 264.160156,332.03125 289.648438,332.03125 C291.796875,332.03125 293.945313,331.835938 295.898438,333.007812 Z" id="Path" fill="#A98856"></path>
                    <path d="M295.898438,333.007813 C266.308594,333.007813 236.71875,333.007813 207.03125,333.007813 C207.03125,332.714844 207.03125,332.421875 206.933594,332.128906 C207.324219,332.03125 207.617188,332.03125 208.007812,331.933594 C209.082031,331.347656 210.253906,331.542969 211.328125,331.542969 C238.085938,331.542969 264.746094,331.542969 291.503906,331.542969 C292.578125,331.542969 293.75,331.347656 294.824219,331.933594 C295.214844,331.933594 295.507812,332.03125 295.898438,332.03125 C295.898438,332.421875 295.898438,332.714844 295.898438,333.007813 Z" id="Path" fill="#C8A776"></path>
                    <path d="M242.480469,93.75 C228.027344,92.6757813 213.28125,93.75 199.023438,89.9414063 C181.445313,85.2539063 177.148438,70.0195313 189.648438,56.7382813 C199.804688,45.9960938 212.890625,41.5039063 226.855469,39.2578125 C246.875,36.0351563 266.308594,38.1835938 284.472656,47.8515625 C292.1875,51.953125 298.730469,57.6171875 301.757813,66.2109375 C305.273438,76.3671875 300.976563,85.0585938 290.722656,88.7695313 C284.570312,90.9179688 278.125,92.3828125 271.777344,92.578125 C261.914062,92.7734375 252.246094,94.2382813 242.480469,93.75 Z" id="Path" fill="#4DA175"></path>
                    <path d="M210.9375,324.316406 C203.222656,321.386719 200.585938,316.015625 202.148438,306.640625 C203.222656,300.292969 208.007812,296.777344 215.722656,296.777344 C239.648438,296.777344 263.476562,296.777344 287.402344,296.777344 C294.628906,296.777344 299.902344,300.78125 300.78125,306.933594 C302.246094,316.40625 299.023438,322.167969 291.113281,324.511719 C290.820312,324.511719 290.527344,324.609375 290.234375,324.609375 C264.160156,324.707031 237.988281,324.804687 211.914063,324.511719 C211.523438,324.414062 211.230469,324.414062 210.9375,324.316406 Z" id="Path" fill="#44546A"></path>
                    <path d="M294.824219,331.933594 C265.917969,331.933594 236.914062,331.933594 208.007812,331.933594 C209.277344,330.46875 211.035156,331.054688 212.597656,331.054688 C238.476562,331.054688 264.355469,331.054688 290.234375,331.054688 C291.796875,331.054688 293.554688,330.566406 294.824219,331.933594 Z" id="Path" fill="#E9CA9C"></path>
                    <path d="M290.917969,325.195312 C290.820312,327.148437 289.257812,326.171875 288.574219,326.171875 C264.0625,326.269531 239.453125,326.269531 214.941406,326.171875 C213.574219,326.171875 211.914063,326.660156 211.035156,325 C212.695313,323.925781 214.453125,324.21875 216.210938,324.21875 C239.453125,324.21875 262.597656,324.21875 285.839844,324.21875 C287.597656,324.21875 289.355469,323.925781 290.917969,325.195312 Z" id="Path" fill="#E9CA9C"></path>
                    <path d="M290.917969,325.195312 C264.257812,325.097656 237.597656,325.097656 210.9375,325 C210.9375,324.804688 210.9375,324.511719 210.839844,324.316406 C210.839844,324.316406 210.9375,323.925781 210.9375,323.925781 C237.597656,323.632813 264.257812,323.535156 290.917969,324.023438 C290.917969,324.023438 291.015625,324.511719 291.015625,324.511719 C291.015625,324.707031 291.015625,324.902344 290.917969,325.195312 Z" id="Path" fill="#898480"></path>
                    <path d="M212.890625,295.214844 C238.476563,295.214844 264.160156,295.214844 289.746094,295.214844 C289.746094,295.3125 289.746094,295.507812 289.746094,295.605469 C264.160156,295.605469 238.476563,295.605469 212.890625,295.605469 C212.890625,295.410156 212.890625,295.3125 212.890625,295.214844 Z" id="Path" fill="#EBCC9D"></path>
                    <path d="M200.488281,306.640625 C201.074219,309.472656 201.5625,312.011719 200.488281,315.527344 C200.488281,311.816406 200.488281,309.277344 200.488281,306.640625 Z" id="Path" fill="#EDCC9D"></path>
                    <path d="M290.917969,324.023438 C264.257812,324.316406 237.597656,324.511719 210.9375,323.925781 C212.207031,322.851562 213.769531,323.242188 215.136719,323.242188 C238.964844,323.242188 262.792969,323.242188 286.71875,323.242188 C288.183594,323.242188 289.746094,322.851562 290.917969,324.023438 Z" id="Path" fill="#394B64"></path>
                    <path d="M84.9609375,232.519531 C75.4882812,224.609375 66.8945312,215.722656 58.203125,207.03125 C46.5820312,195.410156 34.9609375,183.886719 23.2421875,172.265625 C21.09375,170.117188 19.4335937,168.164063 21.5820312,165.136719 C24.4140625,163.378906 26.4648437,164.648438 28.4179687,166.601563 C47.9492188,185.9375 67.4804688,205.175781 87.0117188,224.414063 C87.7929688,225.097656 88.671875,225 89.5507813,225 C184.472656,225.097656 279.394531,225 374.316406,225 C386.035156,225 397.753906,225.097656 409.375,224.902344 C409.960938,224.804688 410.546875,224.707031 411.035156,224.414063 C411.523438,224.121094 412.011719,223.828125 412.5,223.535156 C430.859375,205.566406 449.316406,187.5 467.675781,169.53125 C469.140625,168.066406 470.410156,166.210938 472.558594,165.625 C477.832031,166.894531 478.710938,169.140625 475.195312,172.65625 C455.957031,191.894531 436.621094,211.132813 417.285156,230.371094 C416.40625,231.25 415.429688,232.226562 414.0625,232.421875 C413.867188,232.421875 413.574219,232.421875 413.378906,232.421875 C398.4375,231.542969 383.496094,232.128906 368.554688,232.128906 C276.074219,232.128906 183.496094,232.226562 91.015625,232.03125 C89.2578125,232.03125 87.4023437,232.128906 85.6445312,232.421875 C85.4492188,232.519531 85.15625,232.519531 84.9609375,232.519531 Z" id="XMLID_2_" fill="#E5C798"></path>
                    <path d="M246.875,155.273438 C251.953125,155.078125 256.445312,155.761719 260.742187,157.128906 C265.722656,158.59375 266.796875,161.132812 265.039062,166.015625 C262.695312,172.65625 254.6875,178.027344 247.460937,177.734375 C239.941406,177.441406 231.054687,170.703125 229.492187,164.0625 C228.710937,160.742188 231.445312,156.738281 235.15625,156.347656 C239.355469,156.054688 243.261719,154.6875 246.875,155.273438 Z" id="XMLID_7_" fill="#44546A"></path>
                    <path d="M228.417969,179.882813 C228.320312,181.835938 227.050781,182.8125 225.585938,183.59375 C217.480469,187.988281 209.375,192.382813 201.269531,196.777344 C199.316406,197.851562 197.070312,198.828125 195.800781,196.386719 C194.433594,193.847656 196.679688,192.675781 198.632812,191.699219 C206.738281,187.304688 214.84375,182.910156 223.046875,178.613281 C225.097656,177.34375 227.246094,176.953125 228.417969,179.882813 Z" id="XMLID_6_" fill="#44546A"></path>
                    <path d="M301.269531,195.800781 C300.488281,197.460938 299.21875,198.925781 296.972656,197.65625 C288.085937,192.871094 279.296875,188.085938 270.507812,183.203125 C268.945312,182.324219 267.96875,181.054688 268.847656,179.199219 C269.921875,177.148438 271.777344,177.34375 273.4375,178.222656 C281.835938,182.714844 290.234375,187.304688 298.632812,191.894531 C300,192.675781 300.878906,193.847656 301.269531,195.800781 Z" id="XMLID_5_" fill="#44546A"></path>
                    <path d="M196.191406,181.445313 C193.554688,181.835938 192.480469,181.152344 191.894531,179.589844 C191.308594,178.027344 192.285156,176.953125 193.457031,176.367188 C195.214844,175.488281 197.070312,175 198.925781,174.414062 C205.273437,172.363281 211.621094,170.410156 217.96875,168.359375 C220.3125,167.675781 222.949219,167.1875 223.828125,169.921875 C224.707031,172.65625 221.972656,173.242188 220.019531,173.828125 C211.71875,176.5625 203.515625,179.101563 196.191406,181.445313 Z" id="XMLID_4_" fill="#44546A"></path>
                    <path d="M276.464844,167.96875 C279.882813,168.945312 283.398438,169.921875 287.011719,170.996094 C292.089844,172.558594 297.265625,174.21875 302.34375,175.78125 C304.199219,176.367187 304.980469,177.636719 304.589844,179.492187 C304.101563,181.542969 302.441406,181.933594 300.78125,181.445312 C292.285156,178.90625 283.691406,176.269531 275.195313,173.535156 C273.632813,173.046875 272.265625,171.875 272.753906,169.824219 C273.242188,168.066406 274.707031,167.871094 276.464844,167.96875 Z" id="XMLID_3_" fill="#44546A"></path>
                </g>
                <rect id="Rectangle" fill="#AF8E5A" x="164.0625" y="273.4375" width="179.6875" height="70.3125"></rect>
            </g>
            <g id="team_icons" transform="translate(119.000000, 296.000000)">
                <g id="flutter_icon">
                    <g id="Group">
                        <polygon id="Path" fill="#39CEFD" points="89.9357143 41.5384615 89.9357143 41.5384615 89.9357143 41.5384615 55.7035714 41.5384615 25.7464286 65.7432692 42.8571429 79.5721154"></polygon>
                        <polygon id="Path" fill="#39CEFD" points="17.1857143 58.8288462 0.0642857143 45 55.7035714 0.0605769231 89.9357143 0.0605769231"></polygon>
                        <polygon id="Path" fill="#03569B" points="42.8571429 79.5721154 55.7035714 89.9394231 89.9357143 89.9394231 89.9357143 89.9394231 59.9785714 65.7432692"></polygon>
                        <polygon id="Path" fill="url(#linearGradient-1)" points="42.8571429 79.5721154 68.25 72.4673077 59.9785714 65.7432692"></polygon>
                        <polygon id="Rectangle" fill="#16B9FD" transform="translate(42.866387, 65.738472) rotate(-45.000000) translate(-42.866387, -65.738472) " points="30.7593604 53.6314448 52.6451395 55.9597192 54.9734139 77.8454983 33.0876348 75.5172239"></polygon>
                    </g>
                    <path d="M89.9357143,41.5384615 L59.9785714,65.7432692 L89.9357143,89.9480769 L55.7035714,89.9480769 L42.8571429,79.5721154 L25.7357143,65.7432692 L55.7035714,41.5384615 L89.9357143,41.5384615 Z M55.7035714,0.0605769231 L0.0642857143,45 L17.1857143,58.8288462 L89.9357143,0.0605769231 L55.7035714,0.0605769231 Z" id="Shape" fill="url(#radialGradient-2)" fill-rule="nonzero"></path>
                </g>
                <g id="bird" transform="translate(170.000000, 0.000000)">
                    <path d="M0.36,13.104 C3.816,12.024 6.984,10.944 10.08,10.008 C20.16,6.84 30.168,3.6 40.248,0.432 C41.04,0.144 41.328,0.288 41.616,1.08 C45.576,12.312 49.608,23.472 53.64,34.704 C53.784,35.064 53.856,35.352 54.072,35.928 C36.144,28.224 18.36,20.736 0.36,13.104 Z" id="XMLID_53_" fill="#F6B43F"></path>
                    <path d="M55.224,35.496 C51.048,23.832 46.944,12.312 42.696,0.432 C43.704,0.936 44.424,1.224 45.144,1.584 C52.848,5.328 60.624,9 68.328,12.744 C68.832,12.96 69.336,13.032 68.832,13.824 C64.368,20.88 59.976,28.008 55.584,35.136 C55.512,35.28 55.44,35.28 55.224,35.496 Z" id="XMLID_52_" fill="#F09725"></path>
                    <path d="M78.768,39.312 C63.504,46.44 48.312,53.496 33.048,60.624 C32.976,60.552 32.904,60.48 32.832,60.408 C33.624,58.824 33.696,56.952 35.208,55.584 C41.76,49.752 48.24,43.92 54.72,38.088 C55.152,37.656 55.656,37.512 56.232,37.584 C63.72,38.016 71.136,38.448 78.624,38.952 C78.696,39.024 78.84,39.096 78.768,39.312 Z" id="XMLID_51_" fill="#F6B43F"></path>
                    <path d="M33.696,54.576 C30.456,63.144 27.216,71.64 23.976,80.208 C22.968,82.944 21.888,85.68 20.88,88.416 C20.664,88.92 20.52,89.28 19.872,89.352 C14.472,89.496 9.144,89.712 3.744,89.856 C3.672,89.856 3.672,89.784 3.528,89.712 C4.032,88.848 4.752,88.128 5.328,87.408 C14.616,76.464 23.904,65.52 33.12,54.648 C33.192,54.576 33.336,54.432 33.408,54.36 C33.696,54.288 33.768,54.36 33.696,54.576 Z" id="XMLID_50_" fill="#F09725"></path>
                    <path d="M69.984,14.256 C73.656,22.248 77.184,29.952 80.784,37.944 C72.504,37.44 64.44,36.936 56.16,36.504 C60.84,28.944 65.376,21.672 69.984,14.256 Z" id="XMLID_49_" fill="#EF8322"></path>
                    <path d="M81.792,37.08 C79.056,31.032 76.392,25.272 73.728,19.44 C72.936,17.712 72.144,15.984 71.352,14.328 C71.136,13.896 70.992,13.536 71.784,13.536 C78.336,13.464 84.96,13.392 91.512,13.32 C91.584,13.32 91.656,13.392 91.8,13.392 C88.488,21.24 85.176,29.016 81.792,37.08 Z" id="XMLID_48_" fill="#F6B43F"></path>
                    <path d="M54,37.152 C47.808,42.696 41.688,48.24 35.568,53.712 C36,52.2 36.36,50.76 37.44,49.536 C41.328,45.072 45.144,40.464 49.032,35.928 C49.464,35.424 49.824,35.28 50.472,35.568 C51.552,36.144 52.704,36.576 54,37.152 Z" id="XMLID_46_" fill="#EF8422"></path>
                    <path d="M33.9406785,54.912 C33.8206785,54.812 33.7006785,54.712 33.4606785,54.512 C33.5806785,54.112 33.9406785,54.012 34.3006785,53.712 C34.5406785,54.312 34.3006785,54.612 33.9406785,54.912 Z" id="XMLID_40_" fill="#F5B86B"></path>
                    <path d="M78.912,39.678 C78.792,39.438 78.672,39.318 78.552,39.078 C78.912,39.078 79.272,38.958 79.752,39.198 C79.512,39.558 79.272,39.558 78.912,39.678 Z" id="XMLID_39_" fill="#F9CF83"></path>
                </g>
            </g>
            <text id="wish_text" fill="#007C57" font-family="BodoniOrnamentsITCTT, Bodoni Ornaments" font-size="7.9" font-weight="normal">
                <tspan x="238.84335" y="44">xi</tspan>
                <tspan x="230.09015" y="52">wang</tspan>
                <tspan x="236.33905" y="60">baba</tspan>
                <tspan x="235.7742" y="68">zao</tspan>
                <tspan x="239.5583" y="76">ri</tspan>
                <tspan x="229.3199" y="84">kang</tspan>
                <tspan x="239.67285" y="92">fu</tspan>
            </text>
        </g>
    </g>
</svg>